<svg width="17" height="17" viewBox="0 0 17 17" fill="none" xmlns="http://www.w3.org/2000/svg">
<path d="M16.5908 2.65809C16.8609 2.36739 17.0074 1.98397 16.9997 1.58815C16.992 1.19234 16.8306 0.814871 16.5494 0.534842C16.2681 0.254812 15.8889 0.0939579 15.4911 0.0859909C15.0933 0.0780239 14.7079 0.22356 14.4156 0.492104L8.54308 6.3355L2.6706 0.492104C2.52984 0.340605 2.35979 0.218952 2.17064 0.134441C1.98148 0.0499306 1.77712 0.00430107 1.56981 0.000289917C1.3625 -0.00372124 1.15652 0.0339718 0.964204 0.111103C0.771891 0.188234 0.597214 0.303219 0.450647 0.44916C0.30408 0.5951 0.188644 0.768991 0.11126 0.960405C0.0338763 1.15182 -0.00386081 1.35681 0.000311863 1.56309C0.00448454 1.76937 0.050481 1.97269 0.135543 2.16085C0.220605 2.34901 0.34298 2.51813 0.49533 2.65809L6.36781 8.50149L0.49533 14.3419C0.34298 14.4819 0.220605 14.651 0.135543 14.8392C0.050481 15.0273 0.00448454 15.2306 0.000311863 15.4369C-0.00386081 15.6432 0.0338763 15.8482 0.11126 16.0396C0.188644 16.231 0.30408 16.4049 0.450647 16.5508C0.597214 16.6968 0.771891 16.8118 0.964204 16.8889C1.15652 16.966 1.3625 17.0037 1.56981 16.9997C1.77712 16.9957 1.98148 16.9501 2.17064 16.8656C2.35979 16.781 2.52984 16.6594 2.6706 16.5079L8.54308 10.666L14.4156 16.5094C14.7079 16.7779 15.0933 16.9235 15.4911 16.9155C15.8889 16.9075 16.2681 16.7467 16.5494 16.4666C16.8306 16.1866 16.992 15.8091 16.9997 15.4133C17.0074 15.0175 16.8609 14.6341 16.5908 14.3434L10.7184 8.50149L16.5908 2.65809Z" fill="#C6C6C6"/>
</svg>
